<!--?xml version="1.0" standalone="no"?-->
              <svg id="sw-js-blob-svg" viewBox="0 0 100 100" xmlns="http://www.w3.org/2000/svg" version="1.1">
                    <defs> 
                        <linearGradient id="sw-gradient" x1="0" x2="1" y1="1" y2="0">
                            <stop id="stop1" stop-color="rgba(248, 117, 55, 1)" offset="0%"></stop>
                            <stop id="stop2" stop-color="rgba(251, 168, 31, 1)" offset="100%"></stop>
                        </linearGradient>
                    </defs>
                <path fill="url(#sw-gradient)" d="M25.4,-30.6C31.5,-25.2,34,-15.8,35.1,-6.6C36.2,2.6,35.9,11.6,32.5,20C29.1,28.4,22.6,36.3,14.6,38.5C6.6,40.8,-2.9,37.4,-12.5,34.1C-22.2,30.8,-31.9,27.4,-36.6,20.5C-41.3,13.7,-41,3.2,-37.2,-4.6C-33.5,-12.4,-26.4,-17.7,-19.6,-22.9C-12.8,-28.2,-6.4,-33.4,1.6,-35.4C9.7,-37.3,19.3,-35.9,25.4,-30.6Z" width="100%" height="100%" transform="translate(50 50)" style="transition: all 0.3s ease 0s;" stroke-width="0"></path>
              </svg>