<!--?xml version="1.0" standalone="no"?-->
              <svg id="sw-js-blob-svg" viewBox="0 0 100 100" xmlns="http://www.w3.org/2000/svg" version="1.1">
                    <defs> 
                        <linearGradient id="sw-gradient" x1="0" x2="1" y1="1" y2="0">
                            <stop id="stop1" stop-color="rgba(248, 117, 55, 1)" offset="0%"></stop>
                            <stop id="stop2" stop-color="rgba(251, 168, 31, 1)" offset="100%"></stop>
                        </linearGradient>
                    </defs>
                <path fill="url(#sw-gradient)" d="M23,-27.6C27.9,-23.3,28.5,-14.2,29.3,-5.8C30,2.7,30.9,10.5,28.7,18.5C26.4,26.5,21,34.7,14,36.2C7,37.8,-1.6,32.8,-10,29C-18.4,25.3,-26.8,22.8,-30.5,17.2C-34.1,11.6,-33.2,3,-31.2,-5C-29.2,-13,-26.1,-20.3,-20.8,-24.4C-15.4,-28.5,-7.7,-29.4,0.7,-30.3C9.1,-31.1,18.2,-31.8,23,-27.6Z" width="100%" height="100%" transform="translate(50 50)" style="transition: all 0.3s ease 0s;" stroke-width="0"></path>
              </svg>