<svg id="Layer_1" data-name="Layer 1" xmlns="http://www.w3.org/2000/svg" xmlns:xlink="http://www.w3.org/1999/xlink" viewBox="0 0 277.91 51.34"><defs><style>.cls-1{fill:#00adee;}.cls-2{fill:#b5d33e;}.cls-3{fill:#4d4d4f;}.cls-4{opacity:0.65;fill:url(#linear-gradient);}.cls-5{fill:#4e4d50;}.cls-6{fill:none;}</style><linearGradient id="linear-gradient" x1="230.11" y1="29.26" x2="241.79" y2="37.81" gradientUnits="userSpaceOnUse"><stop offset="0.33" stop-opacity="0"/><stop offset="1"/></linearGradient></defs><circle class="cls-1" cx="228.33" cy="10.56" r="10.56"/><circle class="cls-2" cx="251.52" cy="10.56" r="10.56"/><path class="cls-3" d="M243.18,31.38l-.15.07h0a26.17,26.17,0,0,0-9.86-2.63c-.4,0-.81,0-1.22,0h-.51A26.42,26.42,0,0,0,205,55.16h6.41a20,20,0,0,1,16.69-19.71l.43-.07a20.71,20.71,0,0,1,2.86-.2,20.21,20.21,0,0,1,5.13.67l.07,0,0,0C237.66,35.16,241.74,32.31,243.18,31.38Z" transform="translate(-3.09 -4.01)"/><path class="cls-4" d="M243,31.45l0,0c-.7.39-6.4,4.37-6.4,4.37h-.06a20.21,20.21,0,0,0-5.13-.67,20.71,20.71,0,0,0-2.86.2l4.59-6.55A26.17,26.17,0,0,1,243,31.46Z" transform="translate(-3.09 -4.01)"/><path class="cls-3" d="M281,55.16h-6.41c0-.47,0-.93,0-1.39a20,20,0,0,0-19.93-18.59,19.41,19.41,0,0,0-3.76.36,22.69,22.69,0,0,0-8.58,3.92,20,20,0,0,0-6.58,9.29h14.65A19.93,19.93,0,0,0,245.46,41a21.64,21.64,0,0,1,6.33-2.56,26.24,26.24,0,0,1,6,16.75H228.22a26.31,26.31,0,0,1,8.37-19.26,27,27,0,0,1,6.59-4.52,26.33,26.33,0,0,1,29.46,4.53A27.56,27.56,0,0,1,275,38.4,26.26,26.26,0,0,1,281,55.16Z" transform="translate(-3.09 -4.01)"/><path class="cls-5" d="M98.14,26.72a2.91,2.91,0,0,0-.78-.91,2.61,2.61,0,0,0-1-.44,3.91,3.91,0,0,0-.73-.06H95.5a1.94,1.94,0,0,0-.4,0l-.72.11v9.81c0,2.48-.48,4.33-1.42,5.49a4.69,4.69,0,0,1-3.9,1.67h-14a4.67,4.67,0,0,1-3.9-1.67,9,9,0,0,1-1.42-5.49v-7a3.05,3.05,0,0,0-.33-1.52,2.66,2.66,0,0,0-.78-.9,2.42,2.42,0,0,0-1-.45,3.91,3.91,0,0,0-.73-.06h-.15a1.94,1.94,0,0,0-.4,0l-.72.11v12.3a12.44,12.44,0,0,1-.2,2.4,3.27,3.27,0,0,1-.62,1.41,2.3,2.3,0,0,1-1.08.74,6.2,6.2,0,0,1-2.07.29A5.29,5.29,0,0,1,59.22,42a8.21,8.21,0,0,1-1.71-1.14,7.93,7.93,0,0,0,.19-1.41c0-.57,0-1.14,0-1.7v-8.7a3.1,3.1,0,0,0-.33-1.51,2.69,2.69,0,0,0-.78-.91,2.4,2.4,0,0,0-1-.44,4.06,4.06,0,0,0-.73-.08h-.15a3,3,0,0,0-.42.06l-.7.14V37.61a11.07,11.07,0,0,1-.24,2.55,3.18,3.18,0,0,1-.65,1.37,2.36,2.36,0,0,1-1.11.67,6.83,6.83,0,0,1-1.94.23H45.12V29.89a3.16,3.16,0,0,0-.34-1.52,2.85,2.85,0,0,0-.77-.9A2.42,2.42,0,0,0,43,27a4.06,4.06,0,0,0-.73-.08h-.15a2.11,2.11,0,0,0-.43.06l-.68.14V42.43H26.57v3.66h24a8.17,8.17,0,0,0,3.58-.66A7,7,0,0,0,56,44.11a10.32,10.32,0,0,0,.87.68,8.69,8.69,0,0,0,1.63.91,10.23,10.23,0,0,0,1.85.54,12.2,12.2,0,0,0,2.19.18,10.52,10.52,0,0,0,1.75-.15,8.06,8.06,0,0,0,1.73-.51,5.73,5.73,0,0,0,1.54-.94,4.49,4.49,0,0,0,1-1.17l.08.09a8.45,8.45,0,0,0,3,1.86,11.73,11.73,0,0,0,2.76.47v0H89.31a10,10,0,0,0,3-.49,7.9,7.9,0,0,0,3-1.78,9.79,9.79,0,0,0,2.25-3.45A14.29,14.29,0,0,0,98.47,35V28.24A3.11,3.11,0,0,0,98.14,26.72Z" transform="translate(-3.09 -4.01)"/><path class="cls-1" d="M26.56,34.15h0A11.62,11.62,0,0,0,14.83,23.33,11.75,11.75,0,0,0,3.09,34.78,11.57,11.57,0,0,0,6.53,43a11.7,11.7,0,0,0,8.3,3.43c.46,0,3.77-.12,8.6-.28l.84,0,1.47,0h.83V34.15Zm-3.91,7.62v.77h-.14l-7.68.17a7.54,7.54,0,0,1-1.66-.18,7.84,7.84,0,1,1,9.51-8.63Z" transform="translate(-3.09 -4.01)"/><path class="cls-5" d="M94.48,17.84a2.83,2.83,0,0,0,0,3.82,2.5,2.5,0,0,0,1.88.82,2.53,2.53,0,0,0,1.88-.82A2.74,2.74,0,0,0,99,19.75a2.69,2.69,0,0,0-.75-1.91A2.58,2.58,0,0,0,94.48,17.84Z" transform="translate(-3.09 -4.01)"/><path class="cls-5" d="M124.62,40.34a14.68,14.68,0,0,0,.84-5.35V18.33a3.1,3.1,0,0,0-.33-1.51,2.7,2.7,0,0,0-.78-.91,2.44,2.44,0,0,0-1-.44,4,4,0,0,0-.72-.07h-.14l-.4,0-.72.11V35.28c0,2.46-.48,4.3-1.42,5.47a4.62,4.62,0,0,1-3.76,1.68l-5.38,0a3.26,3.26,0,0,0,2-3l0-21.1a3.05,3.05,0,0,0-.34-1.52,2.69,2.69,0,0,0-.78-.91,2.49,2.49,0,0,0-1-.43,4,4,0,0,0-.72-.07h-.14l-.4,0-.72.11V40.92a6.37,6.37,0,0,1,0,.8l-.09.74h-7.73l0,3.62H116.3a10.72,10.72,0,0,0,3.11-.49,7.37,7.37,0,0,0,3-1.81A9.73,9.73,0,0,0,124.62,40.34Z" transform="translate(-3.09 -4.01)"/><path class="cls-5" d="M135.55,26.26a2.16,2.16,0,0,0-.82-.7,2.74,2.74,0,0,0-1.24-.26h-.26a1.35,1.35,0,0,0-.55.1l-.53.22v19.9a9.6,9.6,0,0,1-.32,2.49,5.86,5.86,0,0,1-.91,2,4.07,4.07,0,0,1-3.51,1.76h-5.06l0,3.63h5.1a8.61,8.61,0,0,0,3.94-.85,8.31,8.31,0,0,0,4.19-5A9.59,9.59,0,0,0,136,46.7V27.91a4.09,4.09,0,0,0-.08-.76A2.4,2.4,0,0,0,135.55,26.26Z" transform="translate(-3.09 -4.01)"/><path class="cls-5" d="M185.8,22.48a2.49,2.49,0,0,0,1.87-.82,2.77,2.77,0,0,0,.74-1.91,2.72,2.72,0,0,0-.74-1.91A2.47,2.47,0,0,0,185.8,17a2.51,2.51,0,0,0-1.88.83,2.72,2.72,0,0,0-.74,1.91,2.68,2.68,0,0,0,.74,1.9A2.51,2.51,0,0,0,185.8,22.48Z" transform="translate(-3.09 -4.01)"/><path class="cls-5" d="M193.18,27.84a11,11,0,0,0-7.66-3.14h0a10.61,10.61,0,0,0-8.09,17.73H164v3.66h22.51V46a10.82,10.82,0,0,0,9.81-10.73A10.39,10.39,0,0,0,193.18,27.84Zm-7.67,14.57a7,7,0,1,1,0-14h0a7,7,0,1,1,0,14Z" transform="translate(-3.09 -4.01)"/><path class="cls-2" d="M164,34.15h0A11.62,11.62,0,0,0,152.3,23.33a11.75,11.75,0,0,0-11.74,11.45A11.73,11.73,0,0,0,152.3,46.46c.46,0,3.77-.12,8.6-.28l.84,0,1.47,0H164V34.15Zm-3.91,7.62v.77H160l-7.68.17a7.54,7.54,0,0,1-1.66-.18,7.84,7.84,0,1,1,9.5-8.63Z" transform="translate(-3.09 -4.01)"/><path class="cls-5" d="M148.13,54.89v.43h10a2.74,2.74,0,0,0,2.74-2.74v-.43h-10A2.74,2.74,0,0,0,148.13,54.89Z" transform="translate(-3.09 -4.01)"/><path class="cls-5" d="M10.88,54.89v.43h10a2.74,2.74,0,0,0,2.74-2.74v-.43h-10A2.74,2.74,0,0,0,10.88,54.89Z" transform="translate(-3.09 -4.01)"/><line class="cls-6" x1="160.95" y1="42.66" x2="160.95" y2="42.07"/></svg>